<mxfile host="app.diagrams.net" modified="2025-09-30T11:47:00.Z" agent="5.0" etag="def903" version="28.2.5" type="device">
  <diagram name="UC-09 DSGVO Datenaufbewahrung und Löschung" id="bpmn-uc09">
    <mxGraphModel dx="1426" dy="743" grid="1" gridSize="10" guides="1" tooltips="1" connect="1" arrows="1" fold="1" page="1" pageScale="1" pageWidth="1169" pageHeight="827" math="0" shadow="0">
      <root>
        <mxCell id="0" />
        <mxCell id="1" parent="0" />
        
        <mxCell id="pool1" value="DSGVO Datenaufbewahrung und Löschung" style="swimlane;html=1;childLayout=stackLayout;resizeParent=1;resizeParentMax=0;horizontal=1;startSize=20;horizontalStack=0;whiteSpace=wrap;" vertex="1" parent="1">
          <mxGeometry x="30" y="40" width="1100" height="700" as="geometry" />
        </mxCell>
        
        <mxCell id="lane1" value="System (Automatisch)" style="swimlane;html=1;startSize=20;horizontal=0;" vertex="1" parent="pool1">
          <mxGeometry y="20" width="1100" height="140" as="geometry" />
        </mxCell>
        
        <mxCell id="start1" value="Tägliche Prüfung" style="ellipse;whiteSpace=wrap;html=1;aspect=fixed;fillColor=#d5e8d4;strokeColor=#82b366;" vertex="1" parent="lane1">
          <mxGeometry x="40" y="45" width="50" height="50" as="geometry" />
        </mxCell>
        
        <mxCell id="task1" value="Aufbewahrungszeiten prüfen" style="rounded=1;whiteSpace=wrap;html=1;fillColor=#e1d5e7;strokeColor=#9673a6;" vertex="1" parent="lane1">
          <mxGeometry x="130" y="50" width="90" height="40" as="geometry" />
        </mxCell>
        
        <mxCell id="gateway1" value="Löschung fällig?" style="rhombus;whiteSpace=wrap;html=1;fillColor=#fff2cc;strokeColor=#d6b656;" vertex="1" parent="lane1">
          <mxGeometry x="260" y="45" width="50" height="50" as="geometry" />
        </mxCell>
        
        <mxCell id="task2" value="Löschkandidaten sammeln" style="rounded=1;whiteSpace=wrap;html=1;fillColor=#e1d5e7;strokeColor=#9673a6;" vertex="1" parent="lane1">
          <mxGeometry x="340" y="50" width="90" height="40" as="geometry" />
        </mxCell>
        
        <mxCell id="task3" value="Abhängigkeiten prüfen" style="rounded=1;whiteSpace=wrap;html=1;fillColor=#e1d5e7;strokeColor=#9673a6;" vertex="1" parent="lane1">
          <mxGeometry x="460" y="50" width="90" height="40" as="geometry" />
        </mxCell>
        
        <mxCell id="lane2" value="DSGVO-Service" style="swimlane;html=1;startSize=20;horizontal=0;" vertex="1" parent="pool1">
          <mxGeometry y="160" width="1100" height="160" as="geometry" />
        </mxCell>
        
        <mxCell id="task4" value="Löschrichtlinien anwenden" style="rounded=1;whiteSpace=wrap;html=1;fillColor=#e1d5e7;strokeColor=#9673a6;" vertex="1" parent="lane2">
          <mxGeometry x="340" y="40" width="90" height="40" as="geometry" />
        </mxCell>
        
        <mxCell id="gateway2" value="Löschung möglich?" style="rhombus;whiteSpace=wrap;html=1;fillColor=#fff2cc;strokeColor=#d6b656;" vertex="1" parent="lane2">
          <mxGeometry x="480" y="35" width="50" height="50" as="geometry" />
        </mxCell>
        
        <mxCell id="task5" value="Daten anonymisieren" style="rounded=1;whiteSpace=wrap;html=1;fillColor=#e1d5e7;strokeColor=#9673a6;" vertex="1" parent="lane2">
          <mxGeometry x="570" y="40" width="90" height="40" as="geometry" />
        </mxCell>
        
        <mxCell id="task6" value="Löschung durchführen" style="rounded=1;whiteSpace=wrap;html=1;fillColor=#e1d5e7;strokeColor=#9673a6;" vertex="1" parent="lane2">
          <mxGeometry x="690" y="40" width="90" height="40" as="geometry" />
        </mxCell>
        
        <mxCell id="task7" value="Aufbewahrung verlängern" style="rounded=1;whiteSpace=wrap;html=1;fillColor=#fff2cc;strokeColor=#d6b656;" vertex="1" parent="lane2">
          <mxGeometry x="455" y="100" width="100" height="40" as="geometry" />
        </mxCell>
        
        <mxCell id="lane3" value="Audit-System" style="swimlane;html=1;startSize=20;horizontal=0;" vertex="1" parent="pool1">
          <mxGeometry y="320" width="1100" height="140" as="geometry" />
        </mxCell>
        
        <mxCell id="task8" value="Löschung protokollieren" style="rounded=1;whiteSpace=wrap;html=1;fillColor=#e1d5e7;strokeColor=#9673a6;" vertex="1" parent="lane3">
          <mxGeometry x="690" y="50" width="90" height="40" as="geometry" />
        </mxCell>
        
        <mxCell id="task9" value="Compliance-Bericht" style="rounded=1;whiteSpace=wrap;html=1;fillColor=#e1d5e7;strokeColor=#9673a6;" vertex="1" parent="lane3">
          <mxGeometry x="810" y="50" width="90" height="40" as="geometry" />
        </mxCell>
        
        <mxCell id="lane4" value="DRV-Admin" style="swimlane;html=1;startSize=20;horizontal=0;" vertex="1" parent="pool1">
          <mxGeometry y="460" width="1100" height="100" as="geometry" />
        </mxCell>
        
        <mxCell id="task10" value="Ausnahmen genehmigen" style="rounded=1;whiteSpace=wrap;html=1;fillColor=#dae8fc;strokeColor=#6c8ebf;" vertex="1" parent="lane4">
          <mxGeometry x="455" y="30" width="100" height="40" as="geometry" />
        </mxCell>
        
        <mxCell id="lane5" value="Ergebnisse" style="swimlane;html=1;startSize=20;horizontal=0;" vertex="1" parent="pool1">
          <mxGeometry y="560" width="1100" height="140" as="geometry" />
        </mxCell>
        
        <mxCell id="end1" value="Keine Löschung" style="ellipse;whiteSpace=wrap;html=1;aspect=fixed;fillColor=#fff2cc;strokeColor=#d6b656;strokeWidth=3;" vertex="1" parent="lane5">
          <mxGeometry x="260" y="45" width="50" height="50" as="geometry" />
        </mxCell>
        
        <mxCell id="end2" value="Aufbewahrung verlängert" style="ellipse;whiteSpace=wrap;html=1;aspect=fixed;fillColor=#fff2cc;strokeColor=#d6b656;strokeWidth=3;" vertex="1" parent="lane5">
          <mxGeometry x="480" y="45" width="50" height="50" as="geometry" />
        </mxCell>
        
        <mxCell id="end3" value="Daten gelöscht" style="ellipse;whiteSpace=wrap;html=1;aspect=fixed;fillColor=#d5e8d4;strokeColor=#82b366;strokeWidth=3;" vertex="1" parent="lane5">
          <mxGeometry x="710" y="45" width="50" height="50" as="geometry" />
        </mxCell>
        
        <mxCell id="end4" value="Compliance erfüllt" style="ellipse;whiteSpace=wrap;html=1;aspect=fixed;fillColor=#d5e8d4;strokeColor=#82b366;strokeWidth=3;" vertex="1" parent="lane5">
          <mxGeometry x="830" y="45" width="50" height="50" as="geometry" />
        </mxCell>
        
        <mxCell id="flow1" value="" style="edgeStyle=orthogonalEdgeStyle;rounded=0;orthogonalLoop=1;jettySize=auto;html=1;" edge="1" parent="pool1" source="start1" target="task1">
          <mxGeometry relative="1" as="geometry" />
        </mxCell>
        
        <mxCell id="flow2" value="" style="edgeStyle=orthogonalEdgeStyle;rounded=0;orthogonalLoop=1;jettySize=auto;html=1;" edge="1" parent="pool1" source="task1" target="gateway1">
          <mxGeometry relative="1" as="geometry" />
        </mxCell>
        
        <mxCell id="flow3" value="Nein" style="edgeStyle=orthogonalEdgeStyle;rounded=0;orthogonalLoop=1;jettySize=auto;html=1;" edge="1" parent="pool1" source="gateway1" target="end1">
          <mxGeometry relative="1" as="geometry">
            <Array as="points">
              <mxPoint x="285" y="140" />
              <mxPoint x="285" y="630" />
            </Array>
          </mxGeometry>
        </mxCell>
        
        <mxCell id="flow4" value="Ja" style="edgeStyle=orthogonalEdgeStyle;rounded=0;orthogonalLoop=1;jettySize=auto;html=1;" edge="1" parent="pool1" source="gateway1" target="task2">
          <mxGeometry relative="1" as="geometry" />
        </mxCell>
        
        <mxCell id="flow5" value="" style="edgeStyle=orthogonalEdgeStyle;rounded=0;orthogonalLoop=1;jettySize=auto;html=1;" edge="1" parent="pool1" source="task2" target="task3">
          <mxGeometry relative="1" as="geometry" />
        </mxCell>
        
        <mxCell id="flow6" value="" style="edgeStyle=orthogonalEdgeStyle;rounded=0;orthogonalLoop=1;jettySize=auto;html=1;" edge="1" parent="pool1" source="task3" target="task4">
          <mxGeometry relative="1" as="geometry">
            <Array as="points">
              <mxPoint x="505" y="140" />
              <mxPoint x="385" y="140" />
              <mxPoint x="385" y="200" />
            </Array>
          </mxGeometry>
        </mxCell>
        
        <mxCell id="flow7" value="" style="edgeStyle=orthogonalEdgeStyle;rounded=0;orthogonalLoop=1;jettySize=auto;html=1;" edge="1" parent="pool1" source="task4" target="gateway2">
          <mxGeometry relative="1" as="geometry">
            <Array as="points">
              <mxPoint x="385" y="220" />
              <mxPoint x="505" y="220" />
            </Array>
          </mxGeometry>
        </mxCell>
        
        <mxCell id="flow8" value="Ja" style="edgeStyle=orthogonalEdgeStyle;rounded=0;orthogonalLoop=1;jettySize=auto;html=1;" edge="1" parent="pool1" source="gateway2" target="task5">
          <mxGeometry relative="1" as="geometry" />
        </mxCell>
        
        <mxCell id="flow9" value="Nein" style="edgeStyle=orthogonalEdgeStyle;rounded=0;orthogonalLoop=1;jettySize=auto;html=1;" edge="1" parent="pool1" source="gateway2" target="task7">
          <mxGeometry relative="1" as="geometry">
            <Array as="points">
              <mxPoint x="505" y="260" />
              <mxPoint x="505" y="280" />
            </Array>
          </mxGeometry>
        </mxCell>
        
        <mxCell id="flow10" value="" style="edgeStyle=orthogonalEdgeStyle;rounded=0;orthogonalLoop=1;jettySize=auto;html=1;" edge="1" parent="pool1" source="task5" target="task6">
          <mxGeometry relative="1" as="geometry" />
        </mxCell>
        
        <mxCell id="flow11" value="" style="edgeStyle=orthogonalEdgeStyle;rounded=0;orthogonalLoop=1;jettySize=auto;html=1;" edge="1" parent="pool1" source="task6" target="task8">
          <mxGeometry relative="1" as="geometry" />
        </mxCell>
        
        <mxCell id="flow12" value="" style="edgeStyle=orthogonalEdgeStyle;rounded=0;orthogonalLoop=1;jettySize=auto;html=1;" edge="1" parent="pool1" source="task8" target="task9">
          <mxGeometry relative="1" as="geometry" />
        </mxCell>
        
        <mxCell id="flow13" value="" style="edgeStyle=orthogonalEdgeStyle;rounded=0;orthogonalLoop=1;jettySize=auto;html=1;" edge="1" parent="pool1" source="task7" target="task10">
          <mxGeometry relative="1" as="geometry" />
        </mxCell>
        
        <mxCell id="flow14" value="" style="edgeStyle=orthogonalEdgeStyle;rounded=0;orthogonalLoop=1;jettySize=auto;html=1;" edge="1" parent="pool1" source="task10" target="end2">
          <mxGeometry relative="1" as="geometry">
            <Array as="points">
              <mxPoint x="505" y="560" />
              <mxPoint x="505" y="630" />
            </Array>
          </mxGeometry>
        </mxCell>
        
        <mxCell id="flow15" value="" style="edgeStyle=orthogonalEdgeStyle;rounded=0;orthogonalLoop=1;jettySize=auto;html=1;" edge="1" parent="pool1" source="task6" target="end3">
          <mxGeometry relative="1" as="geometry">
            <Array as="points">
              <mxPoint x="735" y="320" />
              <mxPoint x="735" y="630" />
            </Array>
          </mxGeometry>
        </mxCell>
        
        <mxCell id="flow16" value="" style="edgeStyle=orthogonalEdgeStyle;rounded=0;orthogonalLoop=1;jettySize=auto;html=1;" edge="1" parent="pool1" source="task9" target="end4">
          <mxGeometry relative="1" as="geometry">
            <Array as="points">
              <mxPoint x="855" y="460" />
              <mxPoint x="855" y="630" />
            </Array>
          </mxGeometry>
        </mxCell>
        
      </root>
    </mxGraphModel>
  </diagram>
</mxfile>
